<!-- Generated by IcoMoon.io -->
<svg version="1.1" xmlns="http://www.w3.org/2000/svg" width="576" height="576" viewBox="0 0 576 576">
<g id="icomoon-ignore">
</g>
<path  d="M544 160h-128v-96c0-17.672-14.328-32-32-32h-192c-17.672 0-32 14.328-32 32v96h-128c-17.672 0-32 14.328-32 32v32h64v288c0 17.672 14.328 32 32 32h384c17.672 0 32-14.328 32-32v-288h64v-32c0-17.672-14.328-32-32-32zM224 96h128v64h-128v-64zM448 480h-320v-256h320v256z"></path>
<path  d="M208 416h32c8.844 0 16-7.164 16-16v-96c0-8.836-7.156-16-16-16h-32c-8.844 0-16 7.164-16 16v96c0 8.836 7.156 16 16 16z"></path>
<path  d="M336 416h32c8.844 0 16-7.164 16-16v-96c0-8.836-7.156-16-16-16h-32c-8.844 0-16 7.164-16 16v96c0 8.836 7.156 16 16 16z"></path>
</svg>
